<?xml version="1.0" standalone="no"?>
<!DOCTYPE svg PUBLIC "-//W3C//DTD SVG 20010904//EN"
 "http://www.w3.org/TR/2001/REC-SVG-20010904/DTD/svg10.dtd">
<svg version="1.0" xmlns="http://www.w3.org/2000/svg"
 width="1024.000000pt" height="1024.000000pt" viewBox="0 0 1024.000000 1024.000000"
 preserveAspectRatio="xMidYMid meet">

<g transform="translate(0.000000,1024.000000) scale(0.100000,-0.100000)"
fill="#000000" stroke="none">
<path d="M6037 8276 c-26 -8 -68 -28 -95 -45 -26 -16 -702 -686 -1503 -1488
-1397 -1398 -1458 -1460 -1474 -1512 -22 -68 -16 -167 14 -235 18 -41 262
-290 1474 -1501 1655 -1654 1495 -1510 1682 -1510 135 0 179 18 271 109 78 78
107 148 108 256 0 149 105 33 -1338 1477 -709 711 -1288 1294 -1286 1297 3 3
580 580 1282 1283 1189 1190 1279 1283 1307 1344 74 158 36 323 -103 445 -89
78 -230 111 -339 80z"/>
</g>
</svg>
