<?xml version="1.0" standalone="no"?>
<!DOCTYPE svg PUBLIC "-//W3C//DTD SVG 20010904//EN"
 "http://www.w3.org/TR/2001/REC-SVG-20010904/DTD/svg10.dtd">
<svg version="1.0" xmlns="http://www.w3.org/2000/svg"
 width="225.000000pt" height="225.000000pt" viewBox="0 0 225.000000 225.000000"
 preserveAspectRatio="xMidYMid meet">

<g transform="translate(0.000000,225.000000) scale(0.100000,-0.100000)"
fill="#000000" stroke="none">
<path d="M234 1610 c-53 -12 -103 -49 -132 -98 l-27 -47 0 -340 0 -340 28 -47
c18 -31 44 -57 75 -75 l47 -28 740 -3 c407 -2 764 0 792 3 67 8 139 55 167
110 20 38 21 56 21 380 0 325 -1 342 -21 380 -25 47 -85 93 -140 105 -47 11
-1505 11 -1550 0z m1535 -121 c58 -20 61 -36 61 -364 0 -335 -2 -346 -68 -365
-25 -8 -264 -10 -775 -8 l-739 3 -29 33 -29 32 0 304 c0 295 1 304 21 330 12
15 31 32 43 36 33 14 1476 12 1515 -1z"/>
<path d="M290 1381 c-14 -26 -14 -486 0 -512 10 -19 29 -19 720 -19 691 0 710
0 720 19 14 26 14 486 0 512 -10 19 -29 19 -720 19 -691 0 -710 0 -720 -19z"/>
<path d="M2040 1125 c0 -124 3 -225 8 -225 56 3 132 131 132 225 0 94 -76 222
-132 225 -5 0 -8 -101 -8 -225z"/>
</g>
</svg>
