<svg width="69" height="68" viewBox="0 0 69 68" fill="none" xmlns="http://www.w3.org/2000/svg">
<g clip-path="url(#clip0_1438_8572)">
<path d="M64.5623 48.025C65.4752 45.8697 65.8398 43.5218 65.6235 41.1912C65.4073 38.8605 64.6169 36.6198 63.3231 34.6692C62.0292 32.7187 60.2723 31.1191 58.2092 30.0135C56.1462 28.9078 53.8413 28.3306 51.5006 28.3334H47.9306C46.7741 23.7788 44.2305 19.6962 40.6519 16.6506C37.0733 13.6049 32.6366 11.7468 27.9556 11.3334M14.6673 14.1667C10.2418 16.6137 6.76175 20.4703 4.78063 25.1229C2.7995 29.7756 2.43113 34.9572 3.7341 39.8433C5.03708 44.7295 7.93657 49.0396 11.9713 52.0881C16.0061 55.1365 20.9444 56.7482 26.0006 56.6667H51.5006C53.1433 56.6648 54.7732 56.3772 56.3173 55.8167" stroke="#0097A7" stroke-width="4" stroke-linecap="round" stroke-linejoin="round"/>
<path d="M3.33203 2.83337L65.6654 65.1667" stroke="#0097A7" stroke-width="4" stroke-linecap="round" stroke-linejoin="round"/>
</g>
<defs>
<clipPath id="clip0_1438_8572">
<rect width="68" height="68" fill="white" transform="translate(0.5)"/>
</clipPath>
</defs>
</svg>
