<svg width="500" height="500" viewBox="0 0 500 500" fill="none" xmlns="http://www.w3.org/2000/svg">
<g filter="url(#filter0_iiii_2812_3913)">
<rect width="500" height="500" rx="120" fill="url(#paint0_linear_2812_3913)"/>
</g>
<g filter="url(#filter1_f_2812_3913)">
<path d="M157.5 255C205.825 255 245 215.825 245 167.5C245 163.194 244.689 158.96 244.088 154.821C243.725 152.318 245.614 150 248.143 150H311C313.209 150 315 151.791 315 154V321C315 323.209 313.209 325 311 325H144C141.791 325 140 323.209 140 321L140 258.143C140 255.614 142.318 253.725 144.821 254.088C148.96 254.689 153.194 255 157.5 255Z" fill="url(#paint1_linear_2812_3913)"/>
<path d="M411.25 325C358.093 325 315 368.093 315 421.25C315 422.719 315.033 424.181 315.098 425.634C315.203 427.982 313.367 430 311.016 430H249C246.791 430 245 428.209 245 426L245 259C245 256.791 246.791 255 249 255L416 255C418.209 255 420 256.791 420 259V321.016C420 323.367 417.982 325.203 415.634 325.098C414.181 325.033 412.719 325 411.25 325Z" fill="url(#paint2_linear_2812_3913)"/>
</g>
<g filter="url(#filter2_iiii_2812_3913)">
<path d="M127.5 215C175.825 215 215 175.825 215 127.5C215 123.194 214.689 118.96 214.088 114.821C213.725 112.318 215.614 110 218.143 110H281C283.209 110 285 111.791 285 114V281C285 283.209 283.209 285 281 285H114C111.791 285 110 283.209 110 281L110 218.143C110 215.614 112.318 213.725 114.821 214.088C118.96 214.689 123.194 215 127.5 215Z" fill="url(#paint3_linear_2812_3913)"/>
<path d="M381.25 285C328.093 285 285 328.093 285 381.25C285 382.719 285.033 384.181 285.098 385.634C285.203 387.982 283.367 390 281.016 390H219C216.791 390 215 388.209 215 386L215 219C215 216.791 216.791 215 219 215L386 215C388.209 215 390 216.791 390 219V281.016C390 283.367 387.982 285.203 385.634 285.098C384.181 285.033 382.719 285 381.25 285Z" fill="url(#paint4_linear_2812_3913)"/>
</g>
<defs>
<filter id="filter0_iiii_2812_3913" x="-2" y="-4" width="506" height="508" filterUnits="userSpaceOnUse" color-interpolation-filters="sRGB">
<feFlood flood-opacity="0" result="BackgroundImageFix"/>
<feBlend mode="normal" in="SourceGraphic" in2="BackgroundImageFix" result="shape"/>
<feColorMatrix in="SourceAlpha" type="matrix" values="0 0 0 0 0 0 0 0 0 0 0 0 0 0 0 0 0 0 127 0" result="hardAlpha"/>
<feOffset dx="4" dy="4"/>
<feGaussianBlur stdDeviation="6"/>
<feComposite in2="hardAlpha" operator="arithmetic" k2="-1" k3="1"/>
<feColorMatrix type="matrix" values="0 0 0 0 0.321454 0 0 0 0 0.835773 0 0 0 0 0.895 0 0 0 1 0"/>
<feBlend mode="normal" in2="shape" result="effect1_innerShadow_2812_3913"/>
<feColorMatrix in="SourceAlpha" type="matrix" values="0 0 0 0 0 0 0 0 0 0 0 0 0 0 0 0 0 0 127 0" result="hardAlpha"/>
<feOffset dx="-2" dy="-4"/>
<feGaussianBlur stdDeviation="6"/>
<feComposite in2="hardAlpha" operator="arithmetic" k2="-1" k3="1"/>
<feColorMatrix type="matrix" values="0 0 0 0 0.0217875 0 0 0 0 0.379021 0 0 0 0 0.415 0 0 0 1 0"/>
<feBlend mode="normal" in2="effect1_innerShadow_2812_3913" result="effect2_innerShadow_2812_3913"/>
<feColorMatrix in="SourceAlpha" type="matrix" values="0 0 0 0 0 0 0 0 0 0 0 0 0 0 0 0 0 0 127 0" result="hardAlpha"/>
<feOffset dx="2" dy="2"/>
<feGaussianBlur stdDeviation="3"/>
<feComposite in2="hardAlpha" operator="arithmetic" k2="-1" k3="1"/>
<feColorMatrix type="matrix" values="0 0 0 0 1 0 0 0 0 1 0 0 0 0 1 0 0 0 0.5 0"/>
<feBlend mode="normal" in2="effect2_innerShadow_2812_3913" result="effect3_innerShadow_2812_3913"/>
<feColorMatrix in="SourceAlpha" type="matrix" values="0 0 0 0 0 0 0 0 0 0 0 0 0 0 0 0 0 0 127 0" result="hardAlpha"/>
<feOffset dx="-1" dy="-2"/>
<feGaussianBlur stdDeviation="3"/>
<feComposite in2="hardAlpha" operator="arithmetic" k2="-1" k3="1"/>
<feColorMatrix type="matrix" values="0 0 0 0 0.0307756 0 0 0 0 0.371514 0 0 0 0 0.405833 0 0 0 0.3 0"/>
<feBlend mode="normal" in2="effect3_innerShadow_2812_3913" result="effect4_innerShadow_2812_3913"/>
</filter>
<filter id="filter1_f_2812_3913" x="90" y="100" width="380" height="380" filterUnits="userSpaceOnUse" color-interpolation-filters="sRGB">
<feFlood flood-opacity="0" result="BackgroundImageFix"/>
<feBlend mode="normal" in="SourceGraphic" in2="BackgroundImageFix" result="shape"/>
<feGaussianBlur stdDeviation="25" result="effect1_foregroundBlur_2812_3913"/>
</filter>
<filter id="filter2_iiii_2812_3913" x="100" y="104" width="300" height="296" filterUnits="userSpaceOnUse" color-interpolation-filters="sRGB">
<feFlood flood-opacity="0" result="BackgroundImageFix"/>
<feBlend mode="normal" in="SourceGraphic" in2="BackgroundImageFix" result="shape"/>
<feColorMatrix in="SourceAlpha" type="matrix" values="0 0 0 0 0 0 0 0 0 0 0 0 0 0 0 0 0 0 127 0" result="hardAlpha"/>
<feOffset dx="-10" dy="-6"/>
<feGaussianBlur stdDeviation="12"/>
<feComposite in2="hardAlpha" operator="arithmetic" k2="-1" k3="1"/>
<feColorMatrix type="matrix" values="0 0 0 0 0.207793 0 0 0 0 0.727528 0 0 0 0 0.781667 0 0 0 0.8 0"/>
<feBlend mode="normal" in2="shape" result="effect1_innerShadow_2812_3913"/>
<feColorMatrix in="SourceAlpha" type="matrix" values="0 0 0 0 0 0 0 0 0 0 0 0 0 0 0 0 0 0 127 0" result="hardAlpha"/>
<feOffset dx="10" dy="10"/>
<feGaussianBlur stdDeviation="12"/>
<feComposite in2="hardAlpha" operator="arithmetic" k2="-1" k3="1"/>
<feColorMatrix type="matrix" values="0 0 0 0 1 0 0 0 0 1 0 0 0 0 1 0 0 0 0.8 0"/>
<feBlend mode="normal" in2="effect1_innerShadow_2812_3913" result="effect2_innerShadow_2812_3913"/>
<feColorMatrix in="SourceAlpha" type="matrix" values="0 0 0 0 0 0 0 0 0 0 0 0 0 0 0 0 0 0 127 0" result="hardAlpha"/>
<feOffset dx="2" dy="2"/>
<feGaussianBlur stdDeviation="1"/>
<feComposite in2="hardAlpha" operator="arithmetic" k2="-1" k3="1"/>
<feColorMatrix type="matrix" values="0 0 0 0 1 0 0 0 0 1 0 0 0 0 1 0 0 0 1 0"/>
<feBlend mode="normal" in2="effect2_innerShadow_2812_3913" result="effect3_innerShadow_2812_3913"/>
<feColorMatrix in="SourceAlpha" type="matrix" values="0 0 0 0 0 0 0 0 0 0 0 0 0 0 0 0 0 0 127 0" result="hardAlpha"/>
<feOffset dx="-2" dy="-2"/>
<feGaussianBlur stdDeviation="1"/>
<feComposite in2="hardAlpha" operator="arithmetic" k2="-1" k3="1"/>
<feColorMatrix type="matrix" values="0 0 0 0 0.0760985 0 0 0 0 0.451573 0 0 0 0 0.488333 0 0 0 0.7 0"/>
<feBlend mode="normal" in2="effect3_innerShadow_2812_3913" result="effect4_innerShadow_2812_3913"/>
</filter>
<linearGradient id="paint0_linear_2812_3913" x1="14.5" y1="12.5" x2="479.5" y2="488.5" gradientUnits="userSpaceOnUse">
<stop stop-color="#00AABE"/>
<stop offset="1" stop-color="#008794"/>
</linearGradient>
<linearGradient id="paint1_linear_2812_3913" x1="347.5" y1="258.5" x2="351.5" y2="417" gradientUnits="userSpaceOnUse">
<stop stop-color="#0E3F4F" stop-opacity="0.8"/>
<stop offset="1" stop-color="#0E3F4F" stop-opacity="0.2"/>
</linearGradient>
<linearGradient id="paint2_linear_2812_3913" x1="347.5" y1="258.5" x2="351.5" y2="417" gradientUnits="userSpaceOnUse">
<stop stop-color="#0E3F4F" stop-opacity="0.8"/>
<stop offset="1" stop-color="#0E3F4F" stop-opacity="0.2"/>
</linearGradient>
<linearGradient id="paint3_linear_2812_3913" x1="141" y1="146" x2="369.5" y2="368.5" gradientUnits="userSpaceOnUse">
<stop stop-color="#F1F5F2"/>
<stop offset="1" stop-color="#B6C5CA"/>
</linearGradient>
<linearGradient id="paint4_linear_2812_3913" x1="141" y1="146" x2="369.5" y2="368.5" gradientUnits="userSpaceOnUse">
<stop stop-color="#F1F5F2"/>
<stop offset="1" stop-color="#B6C5CA"/>
</linearGradient>
</defs>
</svg>
