<svg width="20" height="20" viewBox="0 0 20 20" fill="none" xmlns="http://www.w3.org/2000/svg">
<path d="M2.5 9.45633C2.5 8.22196 3.06989 7.05674 4.04424 6.29892L7.54424 3.57669C8.98868 2.45324 11.0113 2.45324 12.4558 3.57669L15.9558 6.29892C16.9301 7.05674 17.5 8.22196 17.5 9.45632V16.6667C17.5 17.1087 17.3244 17.5326 17.0118 17.8452C16.6993 18.1577 16.2754 18.3333 15.8333 18.3333H4.16667C3.72464 18.3333 3.30072 18.1577 2.98816 17.8452C2.67559 17.5326 2.5 17.1087 2.5 16.6667V9.45633Z" stroke="currentColor" stroke-width="2" stroke-linecap="round" stroke-linejoin="round"/>
<path d="M7.5 18.1663V10.833C7.5 10.2807 7.94772 9.83301 8.5 9.83301H11.5C12.0523 9.83301 12.5 10.2807 12.5 10.833V18.1663" stroke="currentColor" stroke-width="2" stroke-linecap="round" stroke-linejoin="round"/>
</svg>
