<?xml version="1.0" standalone="no"?>
<!DOCTYPE svg PUBLIC "-//W3C//DTD SVG 20010904//EN"
 "http://www.w3.org/TR/2001/REC-SVG-20010904/DTD/svg10.dtd">
<svg version="1.0" xmlns="http://www.w3.org/2000/svg"
 width="225.000000pt" height="225.000000pt" viewBox="0 0 225.000000 225.000000"
 preserveAspectRatio="xMidYMid meet">

<g transform="translate(0.000000,225.000000) scale(0.100000,-0.100000)"
fill="#000000" stroke="none">
<path d="M1882 1889 c-23 -12 -52 -35 -65 -53 l-22 -31 -3 -668 -2 -669 22
-39 c55 -98 198 -118 290 -41 59 50 58 32 58 736 0 432 -4 654 -11 673 -36 96
-167 141 -267 92z"/>
<path d="M1327 1485 c-48 -17 -85 -50 -103 -92 -20 -47 -20 -898 0 -946 55
-132 264 -144 334 -19 22 39 22 44 22 491 0 491 1 479 -57 532 -51 48 -124 60
-196 34z"/>
<path d="M721 1183 c-18 -9 -45 -34 -60 -56 l-26 -40 -3 -296 c-2 -253 -1
-302 13 -338 52 -136 259 -151 337 -25 22 36 23 45 26 319 2 180 -1 296 -8
322 -12 47 -50 96 -91 116 -38 20 -145 19 -188 -2z"/>
<path d="M185 974 c-87 -45 -97 -80 -93 -325 l3 -196 29 -37 c80 -105 252 -98
314 12 21 37 22 52 22 244 0 197 -1 206 -23 239 -39 58 -81 79 -156 79 -40 0
-78 -6 -96 -16z"/>
</g>
</svg>
