<svg width="16" height="21" viewBox="0 0 16 21" fill="none" xmlns="http://www.w3.org/2000/svg">
<path d="M8.1068 12.8333C6.39537 12.8333 5.0625 11.537 5.0625 9.99992V4.16659C5.0625 2.62952 6.39537 1.33325 8.1068 1.33325C9.81824 1.33325 11.1511 2.62952 11.1511 4.16659V9.99992C11.1511 11.537 9.81824 12.8333 8.1068 12.8333Z" stroke="currentColor"/>
<path d="M11.2644 4.16667C11.2644 2.48706 9.81498 1.16667 8.10616 1.16667C6.39734 1.16667 4.94793 2.48706 4.94793 4.16667V10C4.94793 11.6796 6.39734 13 8.10616 13C9.81498 13 11.2644 11.6796 11.2644 10V4.16667ZM4.17578 4.16667C4.17578 2.17127 5.90738 0.5 8.10616 0.5C10.3049 0.5 12.0365 2.17127 12.0365 4.16667V10C12.0365 11.9954 10.3049 13.6667 8.10616 13.6667C5.90738 13.6667 4.17578 11.9954 4.17578 10V4.16667Z" stroke="currentColor"/>
<path d="M15 10.8334C14.2468 14.0417 11.3848 16.45 8 16.45C4.60633 16.45 1.7443 14.0417 1 10.8334" stroke="currentColor" stroke-width="2" stroke-miterlimit="10" stroke-linecap="round"/>
<path d="M7.10547 20.0001C7.10547 20.5524 7.55318 21.0001 8.10547 21.0001C8.65775 21.0001 9.10547 20.5524 9.10547 20.0001H7.10547ZM7.10547 16.6667V20.0001H9.10547V16.6667H7.10547Z" fill="currentColor"/>
</svg>
