<svg width="25" height="24" viewBox="0 0 25 24" fill="current" xmlns="http://www.w3.org/2000/svg">
<path d="M21.3382 4.60999C20.8274 4.099 20.221 3.69364 19.5535 3.41708C18.8861 3.14052 18.1707 2.99817 17.4482 2.99817C16.7257 2.99817 16.0103 3.14052 15.3428 3.41708C14.6754 3.69364 14.0689 4.099 13.5582 4.60999L12.4982 5.66999L11.4382 4.60999C10.4065 3.5783 9.0072 2.9987 7.54817 2.9987C6.08913 2.9987 4.68986 3.5783 3.65817 4.60999C2.62647 5.64169 2.04688 7.04096 2.04688 8.49999C2.04687 9.95903 2.62647 11.3583 3.65817 12.39L4.71817 13.45L12.4982 21.23L20.2782 13.45L21.3382 12.39C21.8492 11.8792 22.2545 11.2728 22.5311 10.6053C22.8076 9.93789 22.95 9.22248 22.95 8.49999C22.95 7.77751 22.8076 7.0621 22.5311 6.39464C22.2545 5.72718 21.8492 5.12075 21.3382 4.60999Z" stroke="current" stroke-width="current" stroke-linecap="round" stroke-linejoin="round"/>
</svg>
