  <svg
    xmlns="http://www.w3.org/2000/svg"
    width="15"
    height="15"
    fill="none"
  >
    <path
      fill="#fff"
      d="m10.321 14.969-5.357-1.893-3.534 1.38a.653.653 0 0 1-.636-.076.658.658 0 0 1-.294-.573V2.78a.86.86 0 0 1 .116-.44.612.612 0 0 1 .338-.278l4.01-1.38 5.357 1.893 3.534-1.379a.697.697 0 0 1 .637.049.58.58 0 0 1 .294.53V12.94a.73.73 0 0 1-.523.717l-3.942 1.31Zm-.446-1.1V3.321L5.411 1.748v10.548l4.464 1.573Zm.893 0 3.125-1.04V2.147l-3.125 1.176v10.547Zm-9.375-.363 3.125-1.21V1.748L1.393 2.823v10.683Z"
    />
  </svg>