<svg width="14" height="15" viewBox="0 0 14 15" fill="none" xmlns="http://www.w3.org/2000/svg">
<mask id="mask0_1438_5985" style="mask-type:alpha" maskUnits="userSpaceOnUse" x="-1" y="-1" width="16" height="16">
<rect x="-0.5" y="-0.5" width="15" height="15" fill="#D9D9D9" stroke="white"/>
</mask>
<g mask="url(#mask0_1438_5985)">
<path d="M7.00098 0.666504C8.36575 0.666581 9.57162 1.15 10.5986 2.09717L10.791 2.28369C11.7171 3.23497 12.167 4.47243 12.167 5.94971C12.167 6.91729 11.8312 7.92207 11.207 8.95654L10.9219 9.40186C10.1145 10.5951 8.90882 11.866 7.32422 13.2144L7.00098 13.4897L6.67676 13.2144C5.29017 12.0345 4.19366 10.9141 3.40039 9.85303L3.0791 9.40186C2.27275 8.21005 1.83398 7.05553 1.83398 5.94971C1.83401 4.37379 2.34655 3.07097 3.40234 2.09717L3.59668 1.92432C4.58051 1.09072 5.72136 0.666504 7.00098 0.666504ZM7.00098 5.1665C6.86067 5.1665 6.7422 5.20073 6.63477 5.2749L6.53027 5.36279C6.39482 5.49825 6.33398 5.64633 6.33398 5.8335C6.33405 6.02044 6.39501 6.16789 6.53027 6.30322L6.63477 6.39111C6.74225 6.46536 6.8606 6.49951 7.00098 6.49951C7.18799 6.49944 7.33533 6.4386 7.4707 6.30322C7.60608 6.16785 7.66692 6.02051 7.66699 5.8335C7.66699 5.69312 7.63284 5.57476 7.55859 5.46729L7.4707 5.36279C7.33537 5.22753 7.18792 5.16657 7.00098 5.1665Z" fill="white" stroke="#767676"/>
</g>
</svg>
