<svg width="20" height="20" viewBox="0 0 20 20" fill="none" xmlns="http://www.w3.org/2000/svg">
<path d="M12.3214 16.9689L6.96429 15.0757L3.43036 16.4551C3.20179 16.541 2.98958 16.5161 2.79375 16.3802C2.59792 16.2444 2.5 16.0533 2.5 15.8069V4.7811C2.5 4.62002 2.53869 4.47307 2.61607 4.34025C2.69345 4.20742 2.80595 4.11516 2.95357 4.06348L6.96429 2.68323L12.3214 4.57645L15.8554 3.1971C16.0839 3.11116 16.2961 3.12738 16.492 3.24579C16.6878 3.36419 16.7857 3.54089 16.7857 3.77589V14.9405C16.7857 15.113 16.7384 15.2626 16.6437 15.3895C16.5497 15.5169 16.4229 15.6064 16.2634 15.6581L12.3214 16.9689ZM11.875 15.8691V5.32112L7.41071 3.74794V14.2959L11.875 15.8691ZM12.7679 15.8691L15.8929 14.8296V4.14642L12.7679 5.32202V15.8691ZM3.39286 15.5058L6.51786 14.2959V3.74794L3.39286 4.82257V15.5058Z" fill="white"/>
</svg>
