<svg width="14" height="14" viewBox="0 0 14 14" fill="none" xmlns="http://www.w3.org/2000/svg">
<path d="M11.668 2.33332H9.8188L8.7513 1.16666H5.2513L4.1838 2.33332H2.33464C2.02522 2.33332 1.72847 2.45624 1.50968 2.67503C1.29089 2.89382 1.16797 3.19057 1.16797 3.49999V10.5C1.16797 10.8094 1.29089 11.1062 1.50968 11.3249C1.72847 11.5437 2.02522 11.6667 2.33464 11.6667H11.668C11.9774 11.6667 12.2741 11.5437 12.4929 11.3249C12.7117 11.1062 12.8346 10.8094 12.8346 10.5V3.49999C12.8346 3.19057 12.7117 2.89382 12.4929 2.67503C12.2741 2.45624 11.9774 2.33332 11.668 2.33332ZM11.668 10.5H2.33464V3.49999H4.69714L5.76464 2.33332H8.23797L9.30547 3.49999H11.668V10.5ZM7.0013 4.08332C6.22775 4.08332 5.48589 4.39061 4.93891 4.93759C4.39193 5.48458 4.08464 6.22644 4.08464 6.99999C4.08464 7.77354 4.39193 8.5154 4.93891 9.06238C5.48589 9.60937 6.22775 9.91666 7.0013 9.91666C7.77485 9.91666 8.51672 9.60937 9.0637 9.06238C9.61068 8.5154 9.91797 7.77354 9.91797 6.99999C9.91797 6.22644 9.61068 5.48458 9.0637 4.93759C8.51672 4.39061 7.77485 4.08332 7.0013 4.08332ZM7.0013 8.74999C6.53717 8.74999 6.09205 8.56562 5.76386 8.23743C5.43568 7.90924 5.2513 7.46412 5.2513 6.99999C5.2513 6.53586 5.43568 6.09074 5.76386 5.76255C6.09205 5.43436 6.53717 5.24999 7.0013 5.24999C7.46543 5.24999 7.91055 5.43436 8.23874 5.76255C8.56693 6.09074 8.7513 6.53586 8.7513 6.99999C8.7513 7.46412 8.56693 7.90924 8.23874 8.23743C7.91055 8.56562 7.46543 8.74999 7.0013 8.74999Z" fill="black"/>
</svg>
