<svg width="20" height="20" viewBox="0 0 20 20" fill="none" xmlns="http://www.w3.org/2000/svg">
<path d="M11.6654 0.666504H4.9987C4.55667 0.666504 4.13275 0.842099 3.82019 1.15466C3.50763 1.46722 3.33203 1.89114 3.33203 2.33317V15.6665C3.33203 16.1085 3.50763 16.5325 3.82019 16.845C4.13275 17.1576 4.55667 17.3332 4.9987 17.3332H14.9987C15.4407 17.3332 15.8646 17.1576 16.1772 16.845C16.4898 16.5325 16.6654 16.1085 16.6654 15.6665V5.6665L11.6654 0.666504Z" stroke="white" stroke-linecap="round" stroke-linejoin="round"/>
<path d="M11.668 0.666504V5.6665H16.668" stroke="white" stroke-linecap="round" stroke-linejoin="round"/>
<path d="M13.3346 9.8335H6.66797" stroke="white" stroke-linecap="round" stroke-linejoin="round"/>
<path d="M13.3346 13.1665H6.66797" stroke="white" stroke-linecap="round" stroke-linejoin="round"/>
<path d="M8.33464 6.5H7.5013H6.66797" stroke="white" stroke-linecap="round" stroke-linejoin="round"/>
</svg>
