<svg width="12" height="12" viewBox="0 0 12 12" fill="none" xmlns="http://www.w3.org/2000/svg">
<path d="M6.85714 0.857143C6.85714 0.629814 6.76684 0.411797 6.60609 0.251051C6.44535 0.090306 6.22733 0 6 0C5.77267 0 5.55465 0.090306 5.39391 0.251051C5.23316 0.411797 5.14286 0.629814 5.14286 0.857143V5.14286H0.857143C0.629814 5.14286 0.411797 5.23316 0.251051 5.39391C0.090306 5.55465 0 5.77267 0 6C0 6.22733 0.090306 6.44535 0.251051 6.60609C0.411797 6.76684 0.629814 6.85714 0.857143 6.85714H5.14286V11.1429C5.14286 11.3702 5.23316 11.5882 5.39391 11.7489C5.55465 11.9097 5.77267 12 6 12C6.22733 12 6.44535 11.9097 6.60609 11.7489C6.76684 11.5882 6.85714 11.3702 6.85714 11.1429V6.85714H11.1429C11.3702 6.85714 11.5882 6.76684 11.7489 6.60609C11.9097 6.44535 12 6.22733 12 6C12 5.77267 11.9097 5.55465 11.7489 5.39391C11.5882 5.23316 11.3702 5.14286 11.1429 5.14286H6.85714V0.857143Z" fill="white"/>
</svg>
